<svg width="26" height="22" viewBox="0 0 26 22" fill="none" xmlns="http://www.w3.org/2000/svg">
<path d="M25.5 3.1875C24.5625 3.65625 23.625 3.8125 22.5313 3.96875C23.625 3.34375 24.4062 2.40625 24.7188 1.15625C23.7812 1.78125 22.6875 2.09375 21.4375 2.40625C20.5 1.46875 19.0937 0.84375 17.6875 0.84375C14.4063 0.84375 11.9063 3.96875 12.6875 7.09375C8.46875 6.9375 4.71875 4.90625 2.0625 1.78125C0.65625 4.125 1.4375 7.09375 3.625 8.65625C2.84375 8.65625 2.0625 8.34375 1.28125 8.03125C1.28125 10.375 3 12.5625 5.34375 13.1875C4.5625 13.3437 3.78125 13.5 3 13.3438C3.625 15.375 5.5 16.9375 7.84375 16.9375C5.96875 18.3437 3.15625 19.125 0.5 18.8125C2.84375 20.2187 5.5 21.1562 8.3125 21.1562C17.8437 21.1562 23.1562 13.1875 22.8437 5.84375C23.9375 5.21875 24.875 4.28125 25.5 3.1875Z" fill="white"/>
</svg>
